# xmcd
#
# Track frame offsets:
#	150
#	13117
#	46327
#	71134
#	97330
#	106694
#	120982
#	139304
#	181042
#	198800
#	227051
#	287419
#
# Disc length: 4058 seconds
#
# Revision: 1
# Processed by: cddbd v1.5.2PL0 Copyright (c) Steve Scherf et al.
# Submitted via: audiograbber 1.83.01
#
DISCID=a00fd80c
DTITLE=Grateful Dead - 70-02-23 The Auditorium, Austin TX
DYEAR=1900
DGENRE=
TTITLE0=I Know You Rider
TTITLE1=High Time
TTITLE2=Dire Wolf
TTITLE3=Yellow Dog Story
TTITLE4=Monkey and The Engineer
TTITLE5=Little Sadie
TTITLE6=Me and My Uncle
TTITLE7=Black Peter
TTITLE8=Seasons Of My Heart
TTITLE9=Uncle John's Band
TTITLE10=Not Fade Away > Good Lovin' Tease
TTITLE11=Mason's Childrens
EXTD=
EXTT0=
EXTT1=
EXTT2=
EXTT3=
EXTT4=
EXTT5=
EXTT6=
EXTT7=
EXTT8=
EXTT9=
EXTT10=
EXTT11=
PLAYORDER=
